<mxfile host="app.diagrams.net" agent="Mozilla/5.0 (Windows NT 10.0; Win64; x64) AppleWebKit/537.36 (KHTML, like Gecko) Chrome/133.0.0.0 Safari/537.36" version="26.0.16">
  <diagram id="C5RBs43oDa-KdzZeNtuy" name="Page-1">
    <mxGraphModel dx="1257" dy="669" grid="1" gridSize="10" guides="1" tooltips="1" connect="1" arrows="1" fold="1" page="1" pageScale="1" pageWidth="827" pageHeight="1169" math="0" shadow="0">
      <root>
        <mxCell id="WIyWlLk6GJQsqaUBKTNV-0" />
        <mxCell id="WIyWlLk6GJQsqaUBKTNV-1" parent="WIyWlLk6GJQsqaUBKTNV-0" />
        <mxCell id="WIyWlLk6GJQsqaUBKTNV-2" value="" style="rounded=0;html=1;jettySize=auto;orthogonalLoop=1;fontSize=11;endArrow=block;endFill=0;endSize=8;strokeWidth=1;shadow=0;labelBackgroundColor=none;edgeStyle=orthogonalEdgeStyle;entryX=0.5;entryY=0;entryDx=0;entryDy=0;exitX=0.5;exitY=1;exitDx=0;exitDy=0;" parent="WIyWlLk6GJQsqaUBKTNV-1" source="5CLBEwvSfX1bp1Uhf7TP-0" edge="1" target="LsBDA5w3eoI129DeR8yU-0">
          <mxGeometry relative="1" as="geometry">
            <mxPoint x="220" y="170" as="targetPoint" />
            <mxPoint x="220.00000000000023" y="120" as="sourcePoint" />
          </mxGeometry>
        </mxCell>
        <mxCell id="5CLBEwvSfX1bp1Uhf7TP-0" value="Start" style="ellipse;whiteSpace=wrap;html=1;" parent="WIyWlLk6GJQsqaUBKTNV-1" vertex="1">
          <mxGeometry x="150" y="10" width="80" height="50" as="geometry" />
        </mxCell>
        <mxCell id="5CLBEwvSfX1bp1Uhf7TP-1" value="End" style="ellipse;whiteSpace=wrap;html=1;" parent="WIyWlLk6GJQsqaUBKTNV-1" vertex="1">
          <mxGeometry x="520" y="535" width="80" height="50" as="geometry" />
        </mxCell>
        <mxCell id="LsBDA5w3eoI129DeR8yU-9" style="edgeStyle=orthogonalEdgeStyle;rounded=0;orthogonalLoop=1;jettySize=auto;html=1;entryX=0.5;entryY=0;entryDx=0;entryDy=0;" edge="1" parent="WIyWlLk6GJQsqaUBKTNV-1" source="LsBDA5w3eoI129DeR8yU-0" target="LsBDA5w3eoI129DeR8yU-7">
          <mxGeometry relative="1" as="geometry" />
        </mxCell>
        <mxCell id="LsBDA5w3eoI129DeR8yU-0" value="average()&lt;br&gt;&lt;span style=&quot;text-align: left;&quot;&gt;accumulator += heights[i]&lt;br&gt;&lt;/span&gt;accumulator / arrayLength&amp;nbsp;" style="rounded=0;whiteSpace=wrap;html=1;" vertex="1" parent="WIyWlLk6GJQsqaUBKTNV-1">
          <mxGeometry x="110" y="105" width="160" height="60" as="geometry" />
        </mxCell>
        <mxCell id="LsBDA5w3eoI129DeR8yU-6" style="edgeStyle=orthogonalEdgeStyle;rounded=0;orthogonalLoop=1;jettySize=auto;html=1;entryX=0.5;entryY=0;entryDx=0;entryDy=0;" edge="1" parent="WIyWlLk6GJQsqaUBKTNV-1" source="LsBDA5w3eoI129DeR8yU-3" target="LsBDA5w3eoI129DeR8yU-8">
          <mxGeometry relative="1" as="geometry">
            <mxPoint x="359.0000000000002" y="390" as="targetPoint" />
          </mxGeometry>
        </mxCell>
        <mxCell id="LsBDA5w3eoI129DeR8yU-3" value="varianceFnc()&lt;br&gt;numbersSize = numbers.length&lt;br&gt;accumulator += (numbers[i] - mean) ** 2&lt;br&gt;accumulator / numbersSize" style="rounded=0;whiteSpace=wrap;html=1;" vertex="1" parent="WIyWlLk6GJQsqaUBKTNV-1">
          <mxGeometry x="80" y="300" width="220" height="60" as="geometry" />
        </mxCell>
        <mxCell id="LsBDA5w3eoI129DeR8yU-10" style="edgeStyle=orthogonalEdgeStyle;rounded=0;orthogonalLoop=1;jettySize=auto;html=1;entryX=0.5;entryY=0;entryDx=0;entryDy=0;" edge="1" parent="WIyWlLk6GJQsqaUBKTNV-1" source="LsBDA5w3eoI129DeR8yU-7" target="LsBDA5w3eoI129DeR8yU-3">
          <mxGeometry relative="1" as="geometry" />
        </mxCell>
        <mxCell id="LsBDA5w3eoI129DeR8yU-7" value="return average" style="shape=document;whiteSpace=wrap;html=1;boundedLbl=1;" vertex="1" parent="WIyWlLk6GJQsqaUBKTNV-1">
          <mxGeometry x="314" y="190" width="90" height="50" as="geometry" />
        </mxCell>
        <mxCell id="LsBDA5w3eoI129DeR8yU-8" value="return variance" style="shape=document;whiteSpace=wrap;html=1;boundedLbl=1;" vertex="1" parent="WIyWlLk6GJQsqaUBKTNV-1">
          <mxGeometry x="314" y="390" width="90" height="50" as="geometry" />
        </mxCell>
      </root>
    </mxGraphModel>
  </diagram>
</mxfile>
